<svg width="1280" height="720" xmlns="http://www.w3.org/2000/svg" xmlns:xlink="http://www.w3.org/1999/xlink" overflow="hidden"><defs><clipPath id="clip0"><path d="M0 0 1280 0 1280 720 0 720Z" fill-rule="evenodd" clip-rule="evenodd"/></clipPath></defs><g clip-path="url(#clip0)"><rect x="0" y="0" width="1280" height="720" fill="#FFFFFF"/><rect x="76" y="89" width="503" height="419" stroke="#000000" stroke-width="6" stroke-miterlimit="8" fill="#FBE5D6"/><text font-family="Arial,Arial_MSFontService,sans-serif" font-weight="900" font-size="43" transform="translate(114.262 196)">Client<tspan x="0" y="51">Applicatio</tspan><tspan x="237.167" y="51">n</tspan></text><rect x="339.5" y="304.5" width="204" height="125" stroke="#2F528F" stroke-miterlimit="8" fill="#FFFFFF"/><text font-family="Arial,Arial_MSFontService,sans-serif" font-weight="400" font-size="24" transform="translate(373.138 355)">Attachment<tspan x="27.3333" y="29">Point</tspan><tspan x="82" y="29">s</tspan></text><rect x="742" y="89" width="445" height="287" stroke="#000000" stroke-width="4" stroke-miterlimit="8" fill="#E2F0D9"/><text font-family="Arial,Arial_MSFontService,sans-serif" font-weight="400" font-size="32" transform="translate(840.145 124)">Declarative Layer</text><rect x="766.5" y="303.5" width="162" height="56" stroke="#000000" stroke-miterlimit="8" fill="#FFFFFF"/><text font-family="Arial,Arial_MSFontService,sans-serif" font-weight="400" font-size="21" transform="translate(792.819 327)">Attachment <tspan x="-15.3333" y="25">Point Manage</tspan><tspan x="116.167" y="25">r</tspan></text><rect x="970.5" y="207.5" width="205" height="36" stroke="#000000" stroke-miterlimit="8" fill="#FFFFFF"/><text font-family="Arial,Arial_MSFontService,sans-serif" font-weight="400" font-size="21" transform="translate(980.425 233)">Alignment Manager</text><rect x="970.5" y="267.5" width="205" height="35" stroke="#000000" stroke-miterlimit="8" fill="#FFFFFF"/><text font-family="Arial,Arial_MSFontService,sans-serif" font-weight="400" font-size="21" transform="translate(982.092 293)">Fragment Manager</text><rect x="970.5" y="156.5" width="205" height="36" stroke="#000000" stroke-miterlimit="8" fill="#FFFFFF"/><text font-family="Arial,Arial_MSFontService,sans-serif" font-weight="400" font-size="21" transform="translate(994.009 182)">Anchor Manager</text><rect x="766.5" y="151.5" width="162" height="123" stroke="#000000" stroke-miterlimit="8" fill="#FFFFFF"/><text font-family="Arial,Arial_MSFontService,sans-serif" font-weight="400" font-size="21" transform="translate(779.512 208)">World Locking <tspan x="25.22" y="25">Manager</tspan></text><rect x="381.5" y="133.5" width="162" height="61" stroke="#000000" stroke-miterlimit="8" fill="#FFFFFF"/><text font-family="Arial,Arial_MSFontService,sans-serif" font-weight="400" font-size="21" transform="translate(394.889 159)">World Locking <tspan x="30.5533" y="25">Context</tspan></text><rect x="742" y="417" width="445" height="276" stroke="#000000" stroke-width="4" stroke-miterlimit="8" fill="#EDEDED"/><text font-family="Arial,Arial_MSFontService,sans-serif" font-weight="400" font-size="32" transform="translate(845.561 452)">Imperative Layer</text><rect x="801.5" y="480.5" width="328" height="57" stroke="#000000" stroke-miterlimit="8" fill="#FFFFFF"/><text font-family="Arial,Arial_MSFontService,sans-serif" font-weight="400" font-size="21" transform="translate(908.187 504)">Unity Plugin<tspan x="-90.9933" y="25">(basic</tspan><tspan x="-28.16" y="25">Unity</tspan><tspan x="26.34" y="25">types</tspan><tspan x="83.34" y="25">e.g.</tspan><tspan x="125.007" y="25">Vector3</tspan><tspan x="197.327" y="25">)</tspan></text><rect x="801.5" y="557.5" width="328" height="30" stroke="#000000" stroke-miterlimit="8" fill="#FFFFFF"/><text font-family="Arial,Arial_MSFontService,sans-serif" font-weight="400" font-size="21" transform="translate(890.437 580)">Thin C# binding</text><rect x="801.5" y="612.5" width="328" height="63" stroke="#000000" stroke-miterlimit="8" fill="#FFFFFF"/><text font-family="Arial,Arial_MSFontService,sans-serif" font-weight="400" font-size="21" transform="translate(865.047 639)">Frozen World Engine<tspan x="37.06" y="25">(C</tspan>-<tspan x="66.7267" y="25">style</tspan><tspan x="116.56" y="25">DLL</tspan>)</text><path d="M558 308 750.842 308 750.842 314 558 314ZM561 320 543 311 561 302ZM747.842 302 765.842 311 747.842 320Z" fill="#F4B183"/><path d="M543 161 750.842 161 750.842 167 543 167ZM747.842 155 765.842 164 747.842 173Z" fill="#F4B183"/><path d="M967 376 967 407.417 963 407.417 963 376ZM971 405.417 965 417.417 959 405.417Z" fill="#A9D18E"/><path d="M1.5-7.5802e-06 1.50007 13.2752-1.49993 13.2752-1.5 7.5802e-06ZM4.50006 11.7752 0.000104987 20.7752-4.49994 11.7752Z" transform="matrix(-1 -8.74228e-08 -8.74228e-08 1 965.5 537.5)"/><path d="M967 587.5 967 605.43 964 605.43 964 587.5ZM970 603.93 965.5 612.93 961 603.93Z"/><path d="M0-1.5 22.8538-1.5 22.8538 34.1506 21.3538 32.6506 35.2075 32.6506 35.2075 35.6506 19.8538 35.6506 19.8538 0 21.3538 1.5 0 1.5ZM33.7075 29.6506 42.7075 34.1506 33.7075 38.6506Z" fill="#A9D18E" transform="matrix(1 0 0 -1 928.5 207.651)"/><path d="M928.5 206 951.354 206 951.354 225.352 949.854 223.852 963.708 223.852 963.708 226.852 948.354 226.852 948.354 207.5 949.854 209 928.5 209ZM962.208 220.852 971.208 225.352 962.208 229.852Z" fill="#A9D18E"/><path d="M0-1.5 77.8791-1.5 77.8791 13.8538 74.8791 13.8538 74.8791 0 76.3791 1.5 0 1.5ZM80.8791 12.3538 76.3791 21.3538 71.8791 12.3538Z" fill="#A9D18E" transform="matrix(-4.37114e-08 1 1 4.37114e-08 949.5 208.5)"/><path d="M0-1.5 16.1429-1.5 16.1429 0.000104987 14.6429-1.49989 21.7859-1.49989 21.7859 1.5001 13.1429 1.5001 13.1429 0 14.6429 1.5 0 1.5ZM20.2859-4.4999 29.2859 0.000104987 20.2859 4.5001Z" fill="#A9D18E" transform="matrix(-4.37114e-08 1 1 4.37114e-08 847.5 274.5)"/></g></svg>